<svg width="95" height="14" viewBox="0 0 95 14" fill="none" xmlns="http://www.w3.org/2000/svg">
<path d="M56.6507 1.86667C56.7222 1.86667 56.7897 1.8999 56.8336 1.95667L58.3371 3.90355C58.3687 3.94448 58.3859 3.99479 58.3859 4.04665V8.32002C58.3859 8.37187 58.3687 8.42218 58.3371 8.46312L56.8336 10.41C56.7897 10.4668 56.7222 10.5 56.6507 10.5H53.0571L52.1303 9.77402V13.7667C52.1303 13.8955 52.0266 14 51.8986 14H50.5085C50.3805 14 50.2768 13.8955 50.2768 13.7667V4.04665C50.2768 3.99479 50.294 3.94448 50.3256 3.90355L51.8291 1.95667C51.873 1.8999 51.9405 1.86667 52.012 1.86667H56.6507ZM4.40211 0C4.53007 0 4.6338 0.104467 4.6338 0.233333V1.63333C4.6338 1.67424 4.62298 1.71247 4.60462 1.7459L4.72453 1.86667H5.95448L6.14364 1.67594C6.14111 1.66213 6.13979 1.64789 6.13979 1.63333V0.233333C6.13979 0.104467 6.24352 5.44937e-09 6.37148 0H10.5419C10.6699 0 10.7736 0.104467 10.7736 0.233333V1.63333C10.7736 1.7622 10.6699 1.86667 10.5419 1.86667H6.59978L6.37125 2.09658L6.37148 2.1V10.2667C6.37148 10.3955 6.26775 10.5 6.13979 10.5H4.51796C4.39 10.5 4.28627 10.3955 4.28627 10.2667V2.1C4.28627 2.09185 4.28659 2.08378 4.2874 2.07585L4.07969 1.86667H0.23169C0.103731 1.86667 0 1.7622 0 1.63333V0.233333C5.59754e-09 0.104467 0.103731 5.44937e-09 0.23169 0H4.40211ZM27.3394 0C27.4674 1.71327e-07 27.5711 0.104467 27.5711 0.233333V1.63333C27.5711 1.7622 27.4674 1.86667 27.3394 1.86667H19.6937V8.63333H27.3394C27.4674 8.63333 27.5711 8.7378 27.5711 8.86667V10.2667C27.5711 10.3955 27.4674 10.5 27.3394 10.5H19.6937L19.5753 10.4998C19.5039 10.4998 19.4364 10.4666 19.3925 10.4098L17.889 8.46312C17.8574 8.42216 17.8401 8.37168 17.8401 8.31979V2.17998C17.8401 2.12809 17.8574 2.07761 17.889 2.03665L19.3925 0.0900065C19.4364 0.0331973 19.5039 0 19.5753 0H27.3394ZM35.3352 1.86667C35.4067 1.86667 35.4742 1.8999 35.5181 1.95667L37.0216 3.90355C37.0532 3.94448 37.0704 3.99479 37.0704 4.04665V8.32002C37.0704 8.37187 37.0532 8.42218 37.0216 8.46312L35.5181 10.41C35.4742 10.4668 35.4067 10.5 35.3352 10.5H30.6965C30.625 10.5 30.5575 10.4668 30.5136 10.41L29.0101 8.46312C28.9785 8.42218 28.9613 8.37187 28.9613 8.32002V4.04665C28.9613 3.99479 28.9785 3.94448 29.0101 3.90355L30.5136 1.95667C30.5575 1.8999 30.625 1.86667 30.6965 1.86667H35.3352ZM42.7493 1.86667C42.8208 1.86667 42.8883 1.8999 42.9322 1.95667L44.4356 3.90355C44.4672 3.94447 44.4845 3.99482 44.4845 4.04665V10.2667C44.4845 10.3955 44.3808 10.5 44.2528 10.5H42.8627C42.7348 10.5 42.6311 10.3955 42.631 10.2667V3.73333H40.3141V10.2667C40.314 10.3955 40.2103 10.5 40.0824 10.5H38.6923C38.5643 10.5 38.4606 10.3955 38.4606 10.2667V2.1C38.4606 1.97113 38.5643 1.86667 38.6923 1.86667H42.7493ZM46.9198 1.86667C46.9912 1.86667 47.0587 1.8999 47.1026 1.95667L48.6061 3.90355C48.6376 3.94447 48.6549 3.99482 48.6549 4.04665V10.2667C48.6549 10.3955 48.5512 10.5 48.4233 10.5H47.0331C46.9052 10.5 46.8015 10.3955 46.8014 10.2667V3.73333H44.7162C44.5883 3.73333 44.4846 3.62882 44.4845 3.5V2.1C44.4845 1.97113 44.5882 1.86667 44.7162 1.86667H46.9198ZM66.3817 1.86667C66.4532 1.86667 66.5207 1.8999 66.5646 1.95667L68.0681 3.90355C68.0997 3.94448 68.1169 3.99479 68.1169 4.04665V8.32002C68.1169 8.37187 68.0997 8.42218 68.0681 8.46312L66.5646 10.41C66.5207 10.4668 66.4532 10.5 66.3817 10.5H61.743C61.6715 10.5 61.604 10.4668 61.5601 10.41L60.0566 8.46312C60.025 8.42218 60.0078 8.37187 60.0078 8.32002V4.04665C60.0078 3.99479 60.025 3.94448 60.0566 3.90355L61.5601 1.95667C61.604 1.8999 61.6715 1.86667 61.743 1.86667H66.3817ZM76.9212 1.86667C77.0491 1.86667 77.1528 1.97113 77.1528 2.1V3.5C77.1528 3.62887 77.0491 3.73333 76.9212 3.73333H71.3606V5.25H75.8937C75.9579 5.25 76.0194 5.27677 76.0632 5.32406L77.554 6.93278C77.594 6.97598 77.6162 7.03298 77.6162 7.09206V8.54561C77.6162 8.60212 77.5959 8.65688 77.559 8.69941L76.0636 10.4202C76.0196 10.4709 75.956 10.5 75.8892 10.5H70.2021C70.0742 10.5 69.9704 10.3955 69.9704 10.2667V8.86667C69.9704 8.7378 70.0742 8.63333 70.2021 8.63333H75.7627V7.11667H71.2296C71.1654 7.11667 71.1039 7.08989 71.0601 7.04261L69.5693 5.43389C69.5293 5.39069 69.5071 5.33369 69.5071 5.27461V3.82106C69.5071 3.76454 69.5274 3.70979 69.5643 3.66725L71.0597 1.94642C71.1037 1.89578 71.1673 1.86667 71.2341 1.86667H76.9212ZM93.2648 1.86667C93.3363 1.86667 93.4037 1.8999 93.4476 1.95667L94.9511 3.90355C94.9827 3.94448 95 3.99479 95 4.04665V5.13333C95 5.2622 94.8963 5.36667 94.7683 5.36667H93.3782C93.2502 5.36667 93.1465 5.2622 93.1465 5.13333V3.73333H89.4394V10.2667C89.4394 10.3955 89.3357 10.5 89.2077 10.5H87.8176C87.6897 10.5 87.5859 10.3955 87.5859 10.2667V4.04665C87.5859 3.99479 87.6032 3.94448 87.6348 3.90355L89.1383 1.95667C89.1822 1.8999 89.2496 1.86667 89.3211 1.86667H93.2648ZM85.7324 1.86667C85.8604 1.86667 85.9641 1.97113 85.9641 2.1V3.44349C85.9641 3.57234 85.8603 3.67682 85.7324 3.67682H80.5721V5.26071H85.7324C85.8604 5.26071 85.9641 5.36518 85.9641 5.49404V6.83753C85.964 6.96635 85.8603 7.07087 85.7324 7.07087H80.5721V8.65452H85.7324C85.8603 8.65452 85.964 8.75904 85.9641 8.88786V10.2313C85.9641 10.3602 85.8604 10.4647 85.7324 10.4647H80.4608C80.3893 10.4647 80.3216 10.4313 80.2777 10.3744L78.8235 8.49137C78.7919 8.45044 78.7747 8.40013 78.7747 8.34828V3.98307C78.7747 3.93119 78.7919 3.8807 78.8235 3.83975L80.2777 1.95667C80.3216 1.89984 80.3893 1.86667 80.4608 1.86667H85.7324ZM30.8148 8.63333H35.2169V3.73333H30.8148V8.63333ZM52.1303 8.63333H56.5324V3.73333H52.1303V8.63333ZM61.8613 8.63333H66.2634V3.73333H61.8613V8.63333ZM14.0372 0C14.0986 9.31298e-06 14.1575 0.0246092 14.201 0.0683594L15.4554 1.33164C15.4988 1.37539 15.5232 1.43474 15.5232 1.49661V3.76432C15.5232 3.82619 15.4988 3.88555 15.4554 3.9293L14.201 5.19258C14.1575 5.23633 14.0986 5.26093 14.0372 5.26094H12.3954C12.2675 5.26094 12.1637 5.15647 12.1637 5.0276V4.3276C12.1637 4.19874 12.2675 4.09427 12.3954 4.09427H14.1331C14.2611 4.09427 14.3648 3.9898 14.3648 3.86094V3.21403H12.3954C12.2675 3.21403 12.1637 3.10956 12.1637 2.9807V2.2807C12.1637 2.15183 12.2675 2.04736 12.3954 2.04736H14.3648V1.4C14.3648 1.27113 14.2611 1.16667 14.1331 1.16667H12.3954C12.2675 1.16667 12.1637 1.0622 12.1637 0.933333V0.233333C12.1637 0.104467 12.2675 4.69773e-10 12.3954 0H14.0372Z" fill="white"/>
</svg>
